<svg id="Layer_1" data-name="Layer 1" xmlns="http://www.w3.org/2000/svg" viewBox="0 0 1828.61 1651"><defs><style>.cls-1{fill:#ff7e00;}.cls-2{fill:#110e57;stroke:#fff;stroke-miterlimit:10;}.cls-2,.cls-4{stroke-width:9px;}.cls-3,.cls-4{fill:#fff;stroke:#000;stroke-linecap:round;stroke-linejoin:bevel;}.cls-3{stroke-width:3px;}</style></defs><title>RUSTLogoVector</title><path class="cls-1" d="M958.15,1690.06c-87.09,0-167.76-53-221.3-145.5-215-371.43-432.19-748.64-645.7-1121.15-27.23-47.5-42.42-95-45.14-141.26-2.63-44.71,7-87.43,27.75-123.55C116.87,83.7,204.44,40.38,314,39.74c74.17-.43,153.44-.63,249.45-.63,66.39,0,133.89.1,199.16.19s132.73.19,199.07.19c65.62,0,132.35-.11,196.88-.21s131.31-.22,197-.22c97.88,0,178.53.24,253.81.77C1716.77,40.58,1803,84,1846,158.86c42.57,74.19,36.73,169.35-16,261.09C1614.59,794.24,1395.24,1173.17,1178,1546.2,1124.77,1637.63,1044.63,1690.06,958.15,1690.06Z" transform="translate(-45.58 -39.06)"/><path class="cls-2" d="M314.13,59.74C100.46,61,2.71,228.9,108.5,413.47Q430.16,974.65,754.16,1534.53c104.23,180,302.18,180.85,406.56,1.61Q1488.14,973.91,1812.62,410c103.64-180.2,5.46-348.69-203.4-350.15-215.83-1.5-431.7-.34-647.52-.34S530,58.49,314.13,59.74Z" transform="translate(-45.58 -39.06)"/><polygon class="cls-1" points="580.88 925.93 592.42 894.94 464.42 578.29 562.42 401.23 571.66 363.74 550.23 265.99 661.65 255.26 661.63 165.94 778.74 255.08 879.42 142.94 994.42 243.94 1124.73 179.49 1172.83 279.67 1319.42 270.94 1282.24 388.04 1269.85 407.15 1300.42 890.52 1300.45 912.21 1326.42 1006.96 1195.19 984.27 1146.17 1155.54 1025.42 1099.94 895.42 1185.94 811.09 1113.86 650.42 1161.94 633.42 1038.94 507.42 1040.94 579.42 937.94 580.88 925.93"/><polygon points="393.3 741.73 395.08 764.43 457.63 764.43 532.42 753.08 521.87 719.43 494.12 714.53 468.5 714.06 441.08 718.75 393.3 741.73"/><path class="cls-3" d="M1706.33,541.1c-26.63,2.8-64.61-2.21-91.41-2-62,.57-124.08.65-186.1-.31-9.13-.15-20-5.05-26.88-11.32-23.29-21.43-45.55-44-67.46-66.87-13.54-14.14-29.43-21.53-48.7-20.19C1235.13,444,1184.49,448,1133.86,452c-25.08,2-31.49,24.73-39.13,41.4-12.53,27.17-22.36,56.48-27.63,85.92-7.45,41.53,32.46,68.6,61.17,54.2,11.78-5.91,20.32-19.27,28.88-30.37,6.62-8.59,10.13-19.57,16.54-28.35,7.15-9.83,15-24.83,24.31-26.24,21.07-3.19,44.21-6.46,61.49,14.91,13.66,16.89,30.48,31.22,44.08,48.58-31.92-11.8-43.19-52.48-80.61-58.3-4.46,44.2-12.82,46.06-36.21,59.11,25.26,7.59,42.91,21.37,46,48.33,3.17,28.19-4.15,50.78-34.75,61.37,34.26,14.39,52.91,40.58,50.61,69.15-2.31,28.76-33.18,53.16-78.46,62.5,16.09,3.12,33.54,4.66,49.67,10.11,18.23,6.11,31.68,17.7,29,40.58-2.12,18.3-18.37,40.46-39.65,46.34,57.91.43,110.4-3.23,159.69-26.73,29.81-14.19,52.65-36.71,69.18-64.22,11.85-19.69,25.61-29.56,48.63-33,19-2.79,25.26-10.73,47.11-6.07ZM686.85,857.72c58.42,20.74,116.46,41,174.23,62.12,15.64,5.73,28.82,10.62,45.5-.13,19.14-12.35,24.73-29.05,25-49.27.4-34.27-1.86-68.68.77-102.75,1.74-22.71-9.1-36.2-24.54-47.58-10.69-7.88-23.55-13-35.82-18.53-20-9-39.91-18.54-60.56-25.6-28.8-9.82-58.31-17.56-91.85-27.49V776l-32.69,1.92ZM736.23,469c-2.58,39-5.43,76.77-7.22,114.6-.28,5.91,2.68,15.75,6.8,17.5,52.29,22.17,104.56,44.6,157.89,64,32.61,11.86,45.92.79,49.76-34.78a93,93,0,0,0,.11-9.88c0-34.92-.12-69.83,0-104.75.12-28-11.43-48.26-37.9-59.15q-26.85-11.06-53.59-22.36c-46.86-20-93.67-40.11-142.23-60.92-1.68,32.67-3.27,63.13-4.86,93.88Zm-37.42-92.67c-31.06,13.74-60.83,26.8-90.51,40.06-44.27,19.86-89,39.09-132.59,60.38-9.57,4.66-20.25,16.06-22.06,25.9-4.66,25.37-4.66,51.6-6.6,79,10.51-2.88,18.32-4.13,25.4-7.11,26.64-11.18,52.93-8.38,79.53.14,15.95,5.09,25.92,13,23.5,32-1.46,11.35-.27,23-.27,35.24l143.1-45.52c2.9-39.61,5.79-79.19,8.73-119.48l-28.22-1.34Zm8.39,274.43c-40.91,13.66-82.87,27.39-124.51,42-3.6,1.27-6.92,8.68-7.1,13.35-.76,20.4-1.09,40.88,0,61.24.74,14.11-7.17,22.5-18.14,24-38.2,5.13-76.77,8.12-116.79,12.11,0,20.89-1.38,46,.55,70.81,1.06,13.59,4.88,30,22,32.8,13.43,2.25,28.3,3.07,41.25-.34,57.76-15.21,115-32.16,174.66-49.1-1.26-28.57-2.54-57.71-3.86-87.68l32-2.15ZM439.89,596H249c1.86,4.46,6.52,14.08,8,16.7,29.29,52.64,60,98.64,89.4,151.24,3.33,5.93,6.25,13,11.37,16.87,23.37,17.56,49.32,3.88,72.89,7.75C433.81,722.92,436.81,660.22,439.89,596Zm681.8,137.42c-24.42,0-48.85-.5-73.23.33a34.78,34.78,0,0,0-18.91,7.23c-27.11,21.37-25.15,65.29,1.79,86.65,38.8,30.8,83.14,20.64,126,18.22,17.5-1,35.6-6.67,51.65-14.07,21.13-9.76,35.19-36.69,31-52-9.38-34.47-24-46.28-57-46.33C1162.6,733.38,1142.15,733.41,1121.69,733.39Zm-682.81,47.4c43.17-29.81,84.33-33.25,128.58-22.3,0-53.34.38-104.68-.53-156-.1-5.91-6.06-14.33-11.56-17.1-31.06-15.62-62.18-10.52-93.49,1.17-10.43,3.9-13.55,8.76-13.74,19.57-.54,29.39-2.41,58.76-4,88.13C442.68,721.33,440.88,748.43,438.88,780.79Zm719-163.44c-28.4,40.65-55.9,33.54-85.22,12.41-12.89-9.32-23.38-9.12-33.34-1.16a111.29,111.29,0,0,0-26.2,30.2c-11.18,19.22,9.95,62.42,30.68,62.34,47.81-.17,95.67-1.31,143.4-4,24.42-1.36,38-20.94,37.62-48.12-.39-24.95-17-43.72-40.63-46.59C1176,621.44,1167.91,619.37,1157.86,617.35ZM813.72,913c-18.81-6.26-31.41-10.1-43.79-14.61-44.22-16.18-87.14-38.79-136.78-18.77-22.67,9.15-46.72,14.91-71.86,22.7,4.11,4.66,5.91,7.45,8.38,9.48,27.19,22,54.87,43.38,81.56,65.95,13.12,11.09,21.64,13.4,38.74,2.38C727.67,955.88,768.8,936.92,813.72,913ZM686.85,855.61c58.42,20.74,116.46,41,174.23,62.12,15.64,5.73,28.82,10.62,45.5-.13,19.14-12.35,24.73-29.05,25-49.27.4-34.27-1.86-68.67.77-102.75,1.74-22.71-9.1-36.2-24.54-47.58-10.69-7.88-23.55-13-35.82-18.53-20-9-39.91-18.54-60.56-25.6-28.8-9.82-58.31-17.56-91.85-27.49V773.91l-32.69,1.92Zm49.38-388.72c-2.58,39-5.43,76.76-7.22,114.59-.28,5.91,2.68,15.75,6.8,17.5,52.29,22.17,104.56,44.6,157.89,64,32.61,11.86,45.92.79,49.76-34.78a93,93,0,0,0,.11-9.88c0-34.92-.12-69.83,0-104.75.12-28-11.43-48.26-37.9-59.15q-26.85-11.06-53.59-22.36c-46.86-20-93.67-40.11-142.23-60.91-1.68,32.66-3.27,63.12-4.86,93.87Zm-37.42-92.68C667.75,388,638,401,608.3,414.27c-44.27,19.86-89,39.09-132.59,60.39-9.57,4.66-20.25,16-22.06,25.89-4.66,25.37-4.66,51.6-6.6,79,10.51-2.88,18.32-4.13,25.4-7.11,26.64-11.18,52.93-8.38,79.53.14,15.95,5.09,25.92,13,23.5,32-1.46,11.35-.27,23-.27,35.25l143.1-45.53c2.9-39.61,5.79-79.19,8.73-119.48l-28.22-1.34Zm8.39,274.43C666.29,662.3,624.33,676,582.69,690.7c-3.6,1.26-6.92,8.67-7.1,13.35-.76,20.39-1.09,40.87,0,61.23.74,14.11-7.17,22.51-18.14,24-38.2,5.13-76.77,8.12-116.79,12.11,0,20.89-1.38,46,.55,70.81,1.06,13.59,4.88,29.95,22,32.8,13.43,2.25,28.3,3.07,41.25-.34,57.76-15.21,115-32.15,174.66-49.1-1.26-28.57-2.54-57.71-3.86-87.67l32-2.16ZM439.89,593.87H249c1.86,4.45,6.52,14.07,8,16.69,29.29,52.64,60,98.65,89.4,151.24,3.33,5.94,6.25,13.05,11.37,16.87,23.37,17.56,49.32,3.88,72.89,7.76C433.81,720.81,436.81,658.11,439.89,593.87Zm-1,184.81c43.17-29.81,84.33-33.25,128.58-22.3,0-53.34.38-104.68-.53-156-.1-5.92-6.06-14.34-11.56-17.11-31.06-15.61-62.18-10.52-93.49,1.17-10.43,3.9-13.55,8.76-13.74,19.57-.54,29.39-2.41,58.76-4,88.13C442.68,719.22,440.88,746.32,438.88,778.68ZM813.72,910.94c-18.81-6.26-31.41-10.11-43.79-14.62-44.22-16.18-87.14-38.79-136.78-18.77-22.67,9.15-46.72,14.91-71.86,22.7,4.11,4.66,5.91,7.45,8.38,9.48,27.19,22,54.87,43.38,81.56,65.95,13.12,11.1,21.64,13.41,38.74,2.38C727.67,953.78,768.8,934.82,813.72,910.94Zm320.1,46.17c29,2.1,55.73-3.17,81-17.62,15.77-9,26.58-20.17,25.91-39.76-.63-18.18-13.24-24.34-27.64-27.76-46.74-11.1-93.46-15-139.44,3.86-17.19,7.06-27.14,19-27.21,38.45,0,19.26,10.81,31.79,27.4,35.89,19.33,4.78,39.83,4.84,59.9,6.94ZM689.61,1210l167.06-57.07c3.42,4.09,8,9.7,12.72,15.18,17,19.74,33.93,39.59,51.35,59,2.85,3.17,8.92,6.81,12,5.77,10.25-3.39,20.85-7.45,29.58-13.71,31.41-22.43,62-46,93.17-68.81,8.78-6.44,16.43-9.83,28.88-2.49,36.18,21.3,74,39.85,111.67,59.77,15-59.45,30-118.42,44.72-176.53L1385,1059.2l-34.37-117.57c-3.73,5.14-6.21,11.79-4.66,17.33,7.9,28.51,16.84,56.73,26,87.06-6.52,0-11.85.94-16.77-.14-33.42-7.15-66.85-14.28-100-22.36-14.6-3.55-22.82,1.44-26.16,15.23-12.32,50.89-24.4,101.83-37.27,155.85-34.54-18.63-67.29-36.84-100.71-53.75-7.82-4-13.76-16.24-27.56-4.76-21.63,18-46.37,32.17-69.68,48.15-12.72,8.74-26.27,16.7-37.5,27.11-12.24,11.37-22.61,13.9-34.59,1-17.81-19.2-36.64-37.58-53.17-57.84-8.86-10.86-17.36-10.83-28.46-7-46.76,16.17-93.54,32.22-141.62,48.76-3.35-43.45-6.66-86.22-9.85-127.41l-124,7.09c4-7.24,5.06-9.38,6.36-11.35,18.12-27.53,36.58-54.84,54.1-82.73,2.67-4.25,1-11.18,1.39-16.88-3.94,3.35-8.08,6.52-11.75,10.14-2.27,2.24-3.92,5.13-5.7,7.83-23,34.81-46.06,69.64-69.32,104.83h141C683.62,1127.89,686.51,1167.42,689.61,1210Zm487.05-994.53c-2.89,1.4-8,3.92-13.1,6.36-33.9,16.15-68.57,30.9-101.42,49-18.85,10.37-29.37,3.66-42-9-31.22-31.27-63.44-61.65-94.77-91.92-31.29,39.07-62.7,78.26-95.1,118.73L698.07,190.46v72.32c0,27-.06,26.21-27.63,27.3-29,1.14-57.93,4.1-88.14,6.36l35,106.36c4.46-34.28-15.84-63.28-21.43-97.75l111.42-10.73V212c1.93-.52,2.79-1,3.13-.8,35,26,69.87,52.22,105,78.05,8.73,6.41,16.55,8.85,25.41-2.7,24.59-32.13,50.39-63.36,76.53-94.25,2.52-3,13.05-3.73,15.92-1.14,31,28.4,63.16,56,90.7,87.51,11.84,13.55,19.18,13.15,31.68,6.86q40.07-20.08,80.17-40.06l35.71-17.82c12,30.53,22.1,58.43,34.2,85.43,3.29,7.34,13,17.4,19.11,16.89,26.9-2.29,53.45-8.54,80.29-12.18,17.62-2.39,35.52-2.8,55.45-4.19-5.59,14.9-10.25,26.86-14.54,39-9,25.56-18,51.13-26.4,76.91-.94,2.88,2.23,7.09,3.33,10.19l53.55-137.89-158.07,16.92C1205.37,286.46,1191.22,251.48,1176.66,215.46Zm-94.1,273.37c-46.64,1.66-62.36,41.93-59.63,78.26,1.39,18.64,16,28.76,31.51,25.76,9.54-35.34,18.76-69.45,28.1-104Zm84.09,118.78c12.11-4.07,21.81-4.55,26.81-9.62,8.09-8.22,13.85-19.11,18.89-29.69,1.28-2.65-3.28-11.37-6.31-12-4.66-1-13,.93-15.15,4.37-8.46,13.81-15.08,28.73-24.26,47Z" transform="translate(-45.58 -39.06)"/><path class="cls-4" d="M1708.06,542.63c-26.64,2.8-64.62-2.21-91.41-2-62,.57-124.09.65-186.11-.31-9.13-.15-20-5.05-26.88-11.32-23.29-21.42-45.55-44-67.45-66.87-13.55-14.14-29.43-21.53-48.7-20.19-50.66,3.52-101.29,7.52-151.92,11.54-25.08,2-31.49,24.73-39.13,41.4-12.53,27.17-22.36,56.48-27.64,85.92-7.45,41.53,32.46,68.6,61.17,54.2,11.79-5.91,20.32-19.27,28.88-30.37,6.63-8.59,10.14-19.57,16.55-28.35,7.14-9.83,15-24.83,24.31-26.24,21.06-3.18,44.2-6.46,61.49,14.91,13.66,16.89,30.47,31.22,44.08,48.58-31.92-11.8-43.2-52.48-80.61-58.3-4.47,44.2-12.82,46.06-36.22,59.11,25.27,7.59,42.91,21.37,46,48.33,3.17,28.19-4.14,50.78-34.75,61.37,34.27,14.39,52.91,40.58,50.62,69.15-2.31,28.76-33.19,53.16-78.47,62.5,16.09,3.12,33.54,4.66,49.68,10.11,18.22,6.11,31.68,17.7,29,40.58-2.12,18.3-18.37,40.46-39.65,46.34,57.91.43,110.41-3.23,159.69-26.73,29.82-14.19,52.65-36.71,69.19-64.22,11.84-19.69,25.6-29.56,48.62-33,19-2.79,25.26-10.73,47.11-6.07ZM688.58,859.25C747,880,805,900.25,862.8,921.37c15.64,5.73,28.83,10.62,45.5-.13,19.14-12.35,24.73-29,25-49.27.4-34.27-1.86-68.68.78-102.75,1.73-22.71-9.11-36.2-24.54-47.58-10.7-7.88-23.56-13-35.83-18.53-20-9-39.9-18.54-60.56-25.6-28.79-9.82-58.3-17.56-91.84-27.49V777.55l-32.69,1.92ZM738,470.52c-2.59,39-5.44,76.77-7.23,114.6-.27,5.91,2.69,15.75,6.81,17.5,52.28,22.17,104.55,44.6,157.89,64,32.61,11.86,45.91.79,49.75-34.78a93,93,0,0,0,.11-9.88c0-34.92-.12-69.83,0-104.75.12-28-11.43-48.26-37.9-59.15Q880.54,447,853.8,435.71c-46.85-20-93.66-40.11-142.22-60.92-1.69,32.67-3.27,63.13-4.86,93.88Zm-37.42-92.67c-31.06,13.74-60.84,26.8-90.51,40.06C565.75,437.77,521,457,477.44,478.3c-9.57,4.65-20.26,16.05-22.06,25.89-4.66,25.37-4.66,51.6-6.6,79,10.51-2.88,18.32-4.13,25.4-7.11,26.63-11.18,52.93-8.38,79.53.14,15.95,5.09,25.91,13,23.49,32-1.46,11.35-.27,23-.27,35.24L720,598c2.9-39.61,5.78-79.19,8.73-119.48l-28.22-1.34Zm8.38,274.43c-40.91,13.66-82.87,27.39-124.51,42.05-3.59,1.27-6.92,8.68-7.1,13.36-.75,20.39-1.09,40.87,0,61.23.75,14.11-7.16,22.51-18.14,24C521,798,482.4,801,442.39,805c0,20.89-1.38,46,.55,70.81,1.05,13.59,4.87,29.95,22,32.8,13.42,2.25,28.29,3.07,41.24-.34,57.77-15.21,115-32.16,174.66-49.1-1.25-28.57-2.54-57.71-3.85-87.67l32-2.16ZM441.61,597.5H250.72c1.87,4.46,6.52,14.08,8,16.7,29.3,52.64,60,98.64,89.41,151.24,3.32,5.94,6.24,13,11.37,16.87,23.36,17.56,49.32,3.88,72.88,7.75C435.53,724.45,438.53,661.75,441.61,597.5Zm681.8,137.42c-24.42,0-48.85-.5-73.23.33a34.72,34.72,0,0,0-18.9,7.23c-27.11,21.37-25.16,65.29,1.79,86.65,38.79,30.8,83.13,20.64,126,18.22,17.5-1,35.6-6.67,51.66-14.07,21.13-9.76,35.19-36.69,31-52-9.38-34.47-23.94-46.28-57-46.33C1164.32,734.91,1143.87,734.94,1123.41,734.92Zm-682.8,47.4c43.16-29.81,84.32-33.25,128.57-22.3,0-53.34.38-104.68-.52-156-.1-5.91-6.07-14.33-11.56-17.1-31.07-15.62-62.18-10.52-93.5,1.17-10.42,3.9-13.54,8.76-13.74,19.57-.53,29.39-2.4,58.76-4,88.13C444.41,722.86,442.6,750,440.61,782.32Zm719-163.44c-28.41,40.65-55.9,33.54-85.22,12.41-12.9-9.32-23.39-9.11-33.35-1.16a111.29,111.29,0,0,0-26.2,30.2c-11.18,19.22,9.95,62.42,30.68,62.34,47.82-.17,95.68-1.31,143.41-4,24.42-1.36,38-20.94,37.61-48.12-.38-25-17-43.72-40.63-46.59C1177.67,623,1169.63,620.9,1159.59,618.88ZM815.44,914.58c-18.81-6.27-31.4-10.11-43.79-14.62-44.21-16.18-87.14-38.79-136.78-18.77-22.66,9.15-46.71,14.91-71.86,22.7,4.11,4.66,5.92,7.45,8.39,9.48,27.18,22,54.86,43.38,81.56,66,13.12,11.09,21.63,13.41,38.74,2.38C729.39,957.41,770.53,938.45,815.44,914.58ZM688.58,857.14C747,877.88,805,898.14,862.8,919.26c15.64,5.73,28.83,10.62,45.5-.13,19.14-12.35,24.73-29,25-49.27.4-34.27-1.86-68.67.78-102.75,1.73-22.71-9.11-36.2-24.54-47.58-10.7-7.88-23.56-13-35.83-18.53-20-9-39.9-18.54-60.56-25.6-28.79-9.82-58.3-17.56-91.84-27.48V775.44l-32.69,1.92ZM738,468.42c-2.59,39-5.44,76.76-7.23,114.59-.27,5.91,2.69,15.75,6.81,17.5,52.28,22.18,104.55,44.6,157.89,64,32.61,11.86,45.91.79,49.75-34.78a93,93,0,0,0,.11-9.88c0-34.92-.12-69.83,0-104.75.12-27.95-11.43-48.26-37.9-59.15q-26.85-11.06-53.59-22.36c-46.85-20-93.66-40.11-142.22-60.91-1.69,32.66-3.27,63.12-4.86,93.87Zm-37.42-92.68C669.48,389.48,639.7,402.55,610,415.8c-44.28,19.86-89,39.09-132.59,60.39-9.57,4.66-20.26,16.05-22.06,25.89-4.66,25.37-4.66,51.6-6.6,79,10.51-2.88,18.32-4.12,25.4-7.11,26.63-11.18,52.93-8.38,79.53.14,15.95,5.09,25.91,13.05,23.49,32-1.46,11.35-.27,23-.27,35.25L720,595.84c2.9-39.61,5.78-79.19,8.73-119.48L700.55,475Zm8.38,274.43c-40.91,13.66-82.87,27.39-124.51,42.06-3.59,1.26-6.92,8.67-7.1,13.35-.75,20.39-1.09,40.87,0,61.23.75,14.11-7.16,22.51-18.14,24-38.19,5.13-76.77,8.12-116.78,12.11,0,20.89-1.38,46,.55,70.81,1.05,13.59,4.87,29.95,22,32.8,13.42,2.25,28.29,3.07,41.24-.34,57.77-15.21,115-32.15,174.66-49.1-1.25-28.57-2.54-57.71-3.85-87.67l32-2.16ZM441.61,595.4H250.72c1.87,4.45,6.52,14.07,8,16.69,29.3,52.65,60,98.65,89.41,151.24,3.32,5.94,6.24,13,11.37,16.88,23.36,17.55,49.32,3.87,72.88,7.75C435.53,722.34,438.53,659.65,441.61,595.4Zm-1,184.81c43.16-29.81,84.32-33.25,128.57-22.3,0-53.34.38-104.67-.52-156-.1-5.92-6.07-14.34-11.56-17.11C526,569.22,494.92,574.31,463.6,586c-10.42,3.9-13.54,8.76-13.74,19.57-.53,29.39-2.4,58.76-4,88.13C444.41,720.75,442.6,747.85,440.61,780.21ZM815.44,912.47c-18.81-6.26-31.4-10.11-43.79-14.62-44.21-16.18-87.14-38.79-136.78-18.77-22.66,9.15-46.71,14.91-71.86,22.7,4.11,4.66,5.92,7.45,8.39,9.49,27.18,22,54.86,43.37,81.56,65.94,13.12,11.1,21.63,13.41,38.74,2.39C729.39,955.31,770.53,936.35,815.44,912.47Zm320.1,46.17c29,2.1,55.74-3.17,81.06-17.62,15.76-9,26.57-20.17,25.9-39.76-.62-18.18-13.24-24.34-27.63-27.76-46.75-11.1-93.46-15-139.45,3.86-17.19,7.06-27.14,19-27.2,38.45-.06,19.26,10.8,31.79,27.4,35.89,19.33,4.78,39.83,4.84,59.89,6.94Zm-51.26-468.28c-46.64,1.66-62.36,41.93-59.63,78.26,1.39,18.64,15.95,28.76,31.51,25.76,9.54-35.34,18.77-69.44,28.1-104Zm84.09,118.78c12.12-4.07,21.82-4.55,26.82-9.62,8.09-8.22,13.84-19.11,18.88-29.69,1.28-2.65-3.28-11.37-6.3-12-4.66-1-13,.93-15.15,4.37-8.46,13.81-15.09,28.73-24.26,47Z" transform="translate(-45.58 -39.06)"/></svg>